<?xml version="1.0" encoding="UTF-8" standalone="no"?>
<svg
   version="1.1"
   width="24.30661pt"
   height="33.587299pt"
   viewBox="0 0 24.30661 33.587299"
   xmlns="http://www.w3.org/2000/svg"
   xmlns:svg="http://www.w3.org/2000/svg">
   <path
      fill="#ff9f58"
      style="display:inline;opacity:1;fill-opacity:1;stroke-width:0.49435"
      d="m 24.30661,21.43399 c 0,6.71209 -5.44122,12.15331 -12.15331,12.15331 C 5.44122,33.5873 0,28.14608 0,21.43399 0,14.72191 5.44123,0 12.15331,0 c 6.71208,0 12.1533,14.72191 12.1533,21.43399 z" />
   <path
      fill="#090919"
      style="display:inline;fill-opacity:1;fill-rule:evenodd;stroke-width:0.212433"
      d="m 9.20757,18.69227 c -0.0915,-0.0206 -0.17918,-0.0611 -0.27289,-0.0712 -0.0101,-0.002 -0.0101,0.0304 -0.0304,0.0304 -0.0712,0.0206 -0.15265,0.0206 -0.23011,0.0307 -0.0611,0.005 -0.22709,0.0304 -0.17612,0 0.11402,-0.0611 0.30649,-0.005 0.37676,-0.10897 C 8.92581,18.502 8.73627,18.47129 8.67422,18.4185 8.65362,18.3979 8.64382,18.3676 8.62312,18.3473 8.59272,18.3166 8.54172,18.2966 8.5192,18.2659 8.4985,18.2355 8.5091,18.1845 8.5293,18.15692 c 0.10177,-0.10494 0.22197,-0.19051 0.34619,-0.26984 0.0206,-0.0101 0.0406,0.0101 0.0611,0.0101 0.0406,-0.002 0.0814,-0.006 0.11503,-0.0207 0.0304,-0.0101 0.0304,-0.0509 0.0507,-0.0611 0.0206,-0.009 0.0406,0.01 0.0611,0.006 0.0712,-0.0206 0.13434,-0.0611 0.1944,-0.10177 0.0611,-0.0406 0.0915,-0.10177 0.15162,-0.13233 0.0407,-0.0206 0.10798,-0.002 0.15163,-0.0304 0.0611,-0.0307 0.16293,-0.0814 0.13333,-0.13737 -0.0406,-0.0712 -0.16499,-0.0408 -0.24335,-0.0712 -0.0915,-0.0406 -0.17405,-0.0915 -0.26068,-0.13738 -0.19154,-0.10177 -0.14978,-0.16293 0,-0.26983 0.0304,-0.0207 0.0611,-0.0406 0.0919,-0.0507 0.0406,-0.0207 0.0814,-0.0304 0.12123,-0.0509 0.0304,-0.0207 0.0304,-0.0511 0.051,-0.0712 0.0304,-0.0307 0.0611,-0.0611 0.10293,-0.0814 0.0408,-0.0207 0.0918,-0.0304 0.13954,-0.0508 0.0712,-0.0307 0.13434,-0.0814 0.20058,-0.12008 0.0814,-0.0509 0.17301,-0.10176 0.24844,-0.16087 0.0304,-0.0206 0.0611,-0.0509 0.0611,-0.0918 -8.4e-4,-0.0304 -0.0611,-0.0406 -0.0712,-0.0712 -0.0101,-0.0307 -0.0206,-0.0814 0.006,-0.10897 0.0611,-0.0511 0.15983,-0.0511 0.23012,-0.10177 0.0511,-0.0304 0.11706,-0.0611 0.11604,-0.11503 -8.4e-4,-0.051 -0.15883,-0.051 -0.12123,-0.0814 0.27392,-0.22503 0.60893,-0.37572 0.91033,-0.56715 0.3574,-0.22708 0.70564,-0.4674 1.06855,-0.68732 0.29324,-0.17817 0.59669,-0.3401 0.89809,-0.50403 0.11301,-0.0611 0.23114,-0.11403 0.3462,-0.172 0.11806,-0.0611 0.23318,-0.12627 0.35231,-0.1833 0.12742,-0.0611 0.25456,-0.12526 0.38897,-0.17198 0.0713,-0.0207 0.14565,-0.0207 0.2179,-0.0406 0.0406,-0.009 0.0712,-0.0101 0.11013,-0.0304 0.0406,-0.0206 0.0712,-0.0611 0.10898,-0.0712 0.0304,-0.009 0.0712,0.0304 0.10292,0.0206 0.0712,-0.0206 0.13017,-0.0712 0.18843,-0.12008 0.0511,-0.0406 0.0712,-0.11907 0.13954,-0.13738 0.0611,-0.0206 0.13335,0.0509 0.20058,0.0407 0.0712,-0.0101 0.13234,-0.0712 0.20059,-0.10898 0.0406,-0.0206 0.0917,-0.0407 0.13335,-0.0611 0.0712,-0.0307 0.12843,-0.0712 0.20058,-0.0814 0.0304,-0.006 0.0611,0.0406 0.0915,0.0406 0.0406,8.3e-4 0.0712,-0.0304 0.11603,-0.0304 0.0206,-6.8e-4 0.0406,0.0304 0.0611,0.0304 0.0509,-0.005 0.10494,-0.0611 0.15779,-0.0507 0.14256,0.0407 0.27492,0.11604 0.39508,0.20058 0.0206,0.0101 -0.0508,0.0406 -0.0304,0.0611 0.0915,0.0814 0.19852,0.14669 0.31564,0.1833 0.0406,0.0101 0.0917,-0.0611 0.13335,-0.0406 0.0406,0.0304 0.0101,0.10392 0.0406,0.14356 0.0511,0.0611 0.14771,0.0712 0.18228,0.13738 0.0207,0.0307 -0.0611,0.0611 -0.0511,0.10293 0.0206,0.10292 0.0915,0.19133 0.10983,0.29223 0.009,0.0304 -0.0304,0.0509 -0.0304,0.0814 0.002,0.0915 0.0814,0.18022 0.0406,0.25761 -0.0206,0.0509 -0.11113,-0.0307 -0.16396,-0.0206 -0.0304,0.009 -0.0304,0.0611 -0.0507,0.0712 -0.0611,0.0206 -0.14155,-0.006 -0.20673,0.0206 -0.17609,0.0611 -0.34619,0.14257 -0.50402,0.24133 -0.38082,0.23725 -0.77997,0.46126 -1.10509,0.76267 -0.0511,0.0509 0.13333,0.0509 0.18843,0.0814 0.0712,0.0507 0.11301,0.13146 0.18229,0.1833 0.0101,0.009 0.0304,-0.0206 0.0406,-0.0206 0.27899,0.13333 0.55291,0.27594 0.81969,0.42971 0.14055,0.0814 0.27899,0.17012 0.40016,0.2749 0.31464,0.27392 0.60384,0.57327 0.90422,0.86042 -0.34824,-0.27185 -0.6812,-0.56004 -1.04393,-0.81459 -0.30241,-0.21179 -0.60686,-0.42868 -0.94695,-0.57939 -0.0509,-0.0206 -0.0304,0.11807 -0.0814,0.12628 -0.13853,0.0207 -0.29427,-0.0507 -0.41952,-0.0507 -0.21995,0.0101 0.21079,0.29834 0.24643,0.31971 0.0712,0.0406 0.18433,-0.0407 0.2576,0.002 0.16397,0.0919 0.27597,0.24439 0.41749,0.36352 0.1477,0.12326 0.3004,0.24133 0.44906,0.36352 0.33193,0.27187 0.66592,0.54273 0.99483,0.81764 0.23723,0.19852 0.50299,0.37369 0.70564,0.60586 0.19749,0.22707 0.33703,0.49589 0.48162,0.75758 0.12425,0.224 0.23116,0.4582 0.32075,0.69647 0.0814,0.2169 0.16499,0.43785 0.19235,0.66697 0.0406,0.30039 -0.0406,0.60787 0,0.90826 0.0406,0.29123 0.19442,0.56005 0.25661,0.84821 0.0508,0.25864 0.0915,0.52339 0.0915,0.78712 0.005,0.29324 -0.006,0.59057 -0.0611,0.87772 -0.0814,0.38182 -0.20058,0.75859 -0.35231,1.12047 -0.13737,0.32686 -0.32482,0.63539 -0.51321,0.93883 -0.17507,0.28205 -0.35433,0.56614 -0.57732,0.81765 -0.28207,0.31669 -0.59975,0.60586 -0.92968,0.87875 -0.25964,0.21383 -0.54881,0.39305 -0.83394,0.57531 -0.37777,0.24234 -0.7423,0.51115 -1.15438,0.69649 -0.44904,0.20161 -0.92763,0.34824 -1.41139,0.45414 -0.44091,0.10191 -0.89504,0.15162 -1.34745,0.15162 -0.51523,0 -1.03048,-0.0712 -1.53937,-0.15162 -0.46536,-0.0712 -0.91033,-0.24744 -1.37914,-0.30244 -0.0712,-0.009 -0.0916,0.13436 -0.16088,0.12124 C 9.24931,29.1082 8.76666,28.97874 8.3218,28.77611 7.65789,28.47369 5.77607,26.62914 7.13544,28.17026 7.26561,28.319 7.37778,28.4849 7.52032,28.62441 7.69951,28.79947 7.89809,28.95634 8.09767,29.10907 8.76361,29.62024 9.8011,29.8534 9.67473,29.82694 8.97621,29.68024 8.55689,29.57441 7.97129,29.12844 7.61797,28.8596 7.26464,28.56023 6.97545,28.23033 6.68525,27.90041 6.43986,27.53691 6.20568,27.17022 5.93686,26.74867 5.6772,26.31897 5.46742,25.86819 5.24851,25.39776 5.07745,24.90698 4.92165,24.41435 4.74556,23.85635 4.57546,23.29294 4.47261,22.71843 4.37084,22.14924 4.31688,21.56947 4.31276,20.99221 4.30776,20.32425 4.35336,19.65535 4.44119,18.99341 4.53269,18.31933 4.6815,17.65257 4.85867,16.99447 5.05617,16.25726 5.31485,15.53635 5.56433,14.81389 5.81685,14.0828 6.10299,13.36147 6.36568,12.63342 6.70068,11.70579 7.01737,10.77196 7.36052,9.84698 7.60591,9.18717 7.85538,8.52775 8.13032,7.87862 8.21172,7.69839 8.55695,6.64938 8.78911,6.89601 9.00398,6.6679 9.19134,6.41437 9.43469,6.21481 9.52629,6.14361 9.65361,6.08954 9.7758,6.08334 c 0.0712,-0.002 0.14055,0.0507 0.16397,0.10797 0.0406,0.10393 0.0304,0.22398 0.0101,0.33397 -0.0101,0.0917 -0.0712,0.18021 -0.0918,0.27493 C 9.82767,6.94977 9.83737,7.10466 9.81747,7.25435 9.79677,7.41524 9.75637,7.57407 9.7157,7.7319 9.6343,8.06488 9.53035,8.39274 9.43773,8.72367 9.34623,9.03831 9.27068,9.35602 9.17195,9.66758 9.05187,10.04536 8.9123,10.41703 8.77994,10.79074 8.6505,11.15321 8.53046,11.51978 8.38791,11.8779 c -0.11014,0.27491 -0.23726,0.58956 -0.34418,0.86552 -0.12427,0.32176 -0.23826,0.60076 -0.35128,0.92659 -0.10177,0.29224 -0.21486,0.58041 -0.31667,0.87265 -0.0712,0.19338 -0.12426,0.391 -0.18948,0.58549 -0.0915,0.27085 -0.19236,0.53967 -0.27899,0.81256 -0.0611,0.18124 -0.11113,0.36453 -0.15183,0.54985 -0.0508,0.2169 -0.0814,0.43784 -0.11402,0.65678 -0.0408,0.2342 -0.0712,0.46942 -0.10191,0.70564 -0.0406,0.33397 -0.0712,0.66797 -0.0915,1.00297 -0.0101,0.24642 0,0.49386 0.0101,0.74027 0.0101,0.23217 0.0304,0.46432 0.0611,0.69342 0.0406,0.23317 0.0915,0.46433 0.15162,0.69242 0.0611,0.21383 0.12426,0.42563 0.20264,0.63334 0.11114,0.29427 0.23319,0.58651 0.36657,0.87263 0.12325,0.26375 0.25865,0.5234 0.40526,0.77694 0.14875,0.25659 0.30039,0.5142 0.48063,0.75247 0.20873,0.27594 0.43274,0.54477 0.68324,0.78813 0.29121,0.28307 0.59976,0.55393 0.93576,0.78813 0.2444,0.17013 0.51727,0.30546 0.79729,0.41849 0.30547,0.12325 0.62214,0.2291 0.949,0.28615 0.31568,0.0509 0.64049,0.0611 0.96124,0.0509 0.31056,-0.01 0.6191,-0.0509 0.92354,-0.10797 0.2953,-0.0509 0.59058,-0.11705 0.87266,-0.21486 0.2352,-0.0814 0.41747,-0.14256 0.63639,-0.25761 0.23318,-0.12223 0.49487,-0.29327 0.69241,-0.44701 0.1691,-0.13146 0.36249,-0.28208 0.50608,-0.43783 0.18329,-0.19854 0.335,-0.38186 0.46838,-0.61402 0.16706,-0.29123 0.3075,-0.59669 0.42971,-0.90829 0.0814,-0.21687 0.14565,-0.44192 0.18947,-0.66897 0.0511,-0.25254 0.0814,-0.50811 0.0919,-0.76472 0.009,-0.27493 0.006,-0.55189 -0.0406,-0.82477 -0.0307,-0.2291 -0.10392,-0.45314 -0.18947,-0.669 -0.0814,-0.20872 -0.19648,-0.40526 -0.31668,-0.5977 -0.12945,-0.20772 -0.26985,-0.41036 -0.4297,-0.5977 -0.10695,-0.12527 -0.23726,-0.23117 -0.36657,-0.33501 -0.0814,-0.0712 -0.17117,-0.15081 -0.27899,-0.17919 -0.0408,-0.0101 -0.0915,0.0511 -0.0712,0.0814 0.0304,0.0917 0.14772,0.14565 0.17713,0.23929 0.0101,0.0406 -0.0712,0.0712 -0.0611,0.12008 0.0304,0.16499 0.15987,0.31057 0.16499,0.47758 8.4e-4,0.0508 -0.11214,0.0304 -0.15162,0 -0.14356,-0.10596 -0.23418,-0.26475 -0.36656,-0.38185 -0.0918,-0.0814 -0.19359,-0.18126 -0.31667,-0.2271 -0.0304,-0.0101 -0.002,0.10293 -0.0406,0.0919 -0.0814,-0.0207 -0.12845,-0.0919 -0.19051,-0.14357 -0.0406,-0.0307 -0.0712,-0.0814 -0.12628,-0.10798 -0.0304,-0.0207 -0.0814,0.0101 -0.11402,0 -0.13435,-0.0406 -0.26068,-0.10494 -0.39202,-0.15573 -0.0712,-0.0206 -0.13146,-0.0611 -0.20263,-0.0712 -0.0304,-0.005 -0.0508,0.0206 -0.0712,0.0206 -0.11502,-0.005 -0.22705,-0.0307 -0.34212,-0.0407 -0.0406,-0.002 -0.0814,-0.0207 -0.11403,0 -0.0304,0.0101 -0.0611,0.0507 -0.0406,0.0712 0.10394,0.11301 0.24743,0.18742 0.36656,0.28613 0.0511,0.0406 0.10191,0.10191 0.15163,0.14357 0.0814,0.0611 0.16192,0.11806 0.24032,0.17918 0.13233,0.10192 0.27287,0.19543 0.392,0.31057 0.0304,0.0304 0.0916,0.13247 0.0508,0.11907 -0.15367,-0.0407 -0.26575,-0.17815 -0.41748,-0.22705 -0.0611,-0.0207 -0.12021,0.0508 -0.17712,0.0406 -0.16808,-0.0507 -0.29531,-0.20058 -0.4684,-0.23929 -0.0507,-0.0101 -0.0712,0.10595 -0.12628,0.10798 -0.0713,0.002 -0.12008,-0.0814 -0.18946,-0.0917 -0.0304,-0.006 -0.0508,0.0406 -0.0712,0.0406 -0.12325,-0.0206 -0.23013,-0.10896 -0.35435,-0.11906 -0.0408,-0.002 -0.0408,0.0814 -0.0712,0.0814 -0.10595,0 -0.20263,-0.0507 -0.30343,-0.0814 -0.14358,-0.0406 -0.28307,-0.10176 -0.4297,-0.13146 -0.0304,-0.006 -0.0712,0.0304 -0.10191,0.0206 -0.11807,-0.0206 -0.22301,-0.0919 -0.34112,-0.11907 -0.0511,-0.0101 -0.10192,0.0101 -0.15184,0.0101 -0.0507,-0.002 -0.11086,-0.0101 -0.16498,-0.0206 -0.0611,-0.0207 -0.12426,-0.0509 -0.18947,-0.0712 -0.10797,-0.0304 -0.21894,-0.0507 -0.32889,-0.0611 -0.20163,-0.0304 -0.40527,-0.0406 -0.60792,-0.0611 -0.29629,-0.0308 -0.61501,-0.0511 -0.9042,-0.11907 z m 3.21869,10.43633 c 0.0406,0.0509 0.12626,0.0206 0.18844,0.0101 0.16088,-0.0206 0.31972,-0.0507 0.47755,-0.0814 0.15677,-0.0304 0.31057,-0.0814 0.4633,-0.12324 0.14669,-0.0406 0.29327,-0.0919 0.43481,-0.1508 0.19152,-0.0814 0.37979,-0.16705 0.56511,-0.25967 0.12425,-0.0611 0.24337,-0.13434 0.3625,-0.20469 0.12729,-0.0712 0.25558,-0.14875 0.37676,-0.23217 0.0408,-0.0304 0.10176,-0.0507 0.10176,-0.0917 0,-0.0304 -0.0712,-0.0206 -0.10176,-0.0101 -0.13738,0.0509 -0.25559,0.13839 -0.39101,0.19154 -0.0917,0.0304 -0.18948,0.0304 -0.27494,0.0712 -0.0611,0.0307 -0.10494,0.10394 -0.17405,0.12325 -0.0406,0.0101 -0.0814,-0.0406 -0.13045,-0.0406 -0.11908,0.0101 -0.23218,0.0507 -0.34723,0.0814 -0.11604,0.0307 -0.2342,0.0507 -0.34824,0.0814 -0.0712,0.0206 -0.14977,0.0508 -0.2169,0.0915 -0.0712,0.0407 -0.12628,0.11504 -0.20367,0.1508 -0.0915,0.0406 -0.20162,0.0611 -0.30445,0.0814 -0.0814,0.0206 -0.17713,0.0307 -0.26169,0.0507 -0.0611,0.0207 -0.13247,0.0511 -0.17403,0.0915 -0.0408,0.0406 -0.0814,0.11907 -0.0408,0.16396 z m -0.14669,0.19052 c -0.0307,-0.0207 -0.0206,-0.0915 0.0101,-0.10192 0.21179,-0.0611 0.44191,-0.0406 0.65677,-0.0915 0.33601,-0.0814 0.67,-0.17118 0.99076,-0.29427 0.3187,-0.12124 0.6252,-0.2729 0.92253,-0.43581 0.24132,-0.13233 0.45922,-0.29937 0.69138,-0.446 0.279,-0.1761 0.56003,-0.35026 0.84208,-0.52236 0.24031,-0.14669 0.50812,-0.25965 0.72603,-0.43477 0.39609,-0.32077 0.78404,-0.65781 1.10662,-1.04493 0.27389,-0.32994 0.48876,-0.70567 0.66898,-1.08872 0.17816,-0.3788 0.29835,-0.78305 0.40322,-1.18638 0.0814,-0.32073 0.11402,-0.65167 0.1619,-0.97955 0.0101,-0.0712 -0.009,-0.15469 0.0101,-0.22807 0.006,-0.0206 0.0509,-0.0101 0.0611,-0.0304 0.002,-0.0406 -0.0511,-0.0712 -0.0511,-0.10898 0.006,-0.0406 0.0611,-0.0712 0.0712,-0.10899 0.002,-0.0304 -0.0509,-0.0507 -0.0509,-0.0915 0.0101,-0.10176 0.0712,-0.18637 0.0915,-0.28306 0.006,-0.0207 -0.0304,-0.0407 -0.0206,-0.0611 0.0101,-0.0307 0.0509,-0.0814 0.0712,-0.0511 0.0611,0.10898 0.0915,0.23728 0.11504,0.35946 0.0304,0.15779 0.0611,0.3187 0.0712,0.47858 0.01,0.17714 0.0304,0.35638 0.01,0.53354 -0.002,0.0206 -0.0611,-0.0406 -0.0712,-0.0206 -0.006,0.0406 0.0611,0.0712 0.0611,0.10898 0,0.14669 -0.0406,0.29121 -0.0611,0.43583 -0.0206,0.16395 -0.0509,0.32785 -0.0814,0.48976 -0.0304,0.15677 -0.0509,0.31973 -0.11503,0.4684 -0.0101,0.0207 -0.0611,-0.0406 -0.0814,-0.0207 -0.0207,0.0304 0.0406,0.0611 0.0304,0.0915 -0.0101,0.0304 -0.0611,0.0406 -0.0814,0.0712 -0.01,0.0206 -0.01,0.0406 -0.01,0.0611 -0.002,0.0206 0.01,0.0407 0,0.0611 -0.0304,0.0712 -0.0814,0.13738 -0.12728,0.20671 -0.0407,0.0712 -0.0814,0.15182 -0.12728,0.2291 -0.0406,0.0814 -0.0814,0.16806 -0.12743,0.25049 -0.0712,0.12123 -0.13046,0.24335 -0.20772,0.35943 -0.0814,0.12123 -0.17612,0.23218 -0.26475,0.34823 -0.10293,0.13436 -0.2016,0.2729 -0.31159,0.40323 -0.0915,0.10595 -0.21181,0.18948 -0.28816,0.30448 -0.0206,0.0304 0.0304,0.0611 0.0206,0.10191 -0.002,0.0206 -0.0206,0.0509 -0.0511,0.0509 -0.0206,0.006 -0.0406,-0.0307 -0.0611,-0.0206 -0.11604,0.0915 -0.20469,0.20669 -0.31159,0.30446 -0.0511,0.0511 -0.10897,0.10292 -0.17301,0.14155 -0.0304,0.0206 -0.0611,0.006 -0.0917,0.0206 -0.0509,0.0304 -0.11604,0.0611 -0.14977,0.10897 -0.0206,0.0304 0.0207,0.0814 0,0.10897 -0.0304,0.0406 -0.10984,0.0304 -0.14977,0.0611 -0.0304,0.0304 -0.0101,0.0814 -0.0509,0.10897 -0.0304,0.0206 -0.0712,-0.0206 -0.10393,0 -0.0406,0.0304 -0.0507,0.0917 -0.0915,0.12008 -0.0406,0.0206 -0.0814,0 -0.12628,0.0101 -0.0712,0.0206 -0.14256,0.0307 -0.19543,0.0712 -0.0207,0.01 0.0406,0.0509 0.0206,0.0611 -0.0814,0.0918 -0.18434,0.1619 -0.28815,0.22913 -0.13954,0.0915 -0.2892,0.16499 -0.43786,0.23927 -0.13535,0.0712 -0.26883,0.14054 -0.41544,0.18535 -0.0304,0.0101 -0.0611,-0.0406 -0.0918,-0.0304 -0.0611,0.009 -0.12426,0.0304 -0.17303,0.0611 -0.0304,0.0206 -0.0101,0.0611 -0.0304,0.0917 -0.0206,0.0206 -0.0507,0.0304 -0.0814,0.0206 -0.0206,-0.005 -0.0304,-0.0507 -0.0611,-0.0406 -0.0814,0.0101 -0.16089,0.0507 -0.24236,0.0814 -0.19544,0.0509 -0.38999,0.11013 -0.58753,0.15181 -0.17815,0.0406 -0.36045,0.0611 -0.54171,0.0917 -0.18329,0.0206 -0.36858,0.0406 -0.55289,0.0509 -0.165,0.009 -0.33093,0.005 -0.49589,0 -0.0712,-0.002 -0.14977,0.0101 -0.20771,-0.0207 z m 6.20051,-10.63327 c 0.0101,-0.006 0.0206,0.0207 0.0406,0.0101 0.0206,-0.009 0.0307,-0.0507 0.0611,-0.0507 0.0408,0.005 0.0712,0.0406 0.0916,0.0611 0.0406,0.0509 0.0712,0.11402 0.11114,0.16911 0.0406,0.0611 0.0814,0.12627 0.13146,0.18433 0.0406,0.0511 0.10278,0.0713 0.13146,0.12527 0.0207,0.0206 -0.0206,0.0611 -0.0206,0.0814 0.006,0.0206 0.0304,0.0307 0.0511,0.0406 0.0207,0.0304 0.0304,0.0611 0.0507,0.10177 0.0101,0.0307 0.0101,0.0712 0.0304,0.10191 0.0101,0.0206 0.0406,0.0206 0.0509,0.0406 0.0101,0.0101 0.0206,0.0206 0.0206,0.0406 6.2e-4,0.0101 -0.0206,0.0207 -0.0101,0.0304 0.0206,0.0509 0.0712,0.10177 0.0918,0.15472 0.0101,0.0304 6.6e-4,0.0611 0.0207,0.0915 0.0101,0.0206 0.0406,0.0101 0.0509,0.0304 0.0206,0.0509 0.0101,0.11402 0.0304,0.16911 0.0206,0.0712 0.0406,0.14256 0.0611,0.21483 0.009,0.0304 0.01,0.0712 0.0206,0.10192 0.002,0.0206 0.005,0.0406 0.0101,0.0611 0.006,0.0206 0.0206,0.0511 0.0206,0.0712 -0.002,0.0307 -0.009,0.0611 -0.0304,0.0712 -0.0206,0.0101 -0.051,-0.0101 -0.0611,-0.0304 -0.0406,-0.0507 -0.0712,-0.10999 -0.0916,-0.1691 -0.0206,-0.0611 -0.0304,-0.12426 -0.0507,-0.18434 -0.005,-0.0101 -0.0206,-0.0101 -0.0304,-0.0207 -0.0304,-0.0507 -0.0406,-0.11186 -0.0611,-0.165 -0.0307,-0.0611 -0.0712,-0.11604 -0.10191,-0.17402 -0.0304,-0.0509 -0.0611,-0.0915 -0.0814,-0.13954 -0.0207,-0.0509 -0.0307,-0.10192 -0.0611,-0.14464 -0.006,-0.0101 -0.0304,-0.0101 -0.0304,-0.0206 -0.0206,-0.0507 -0.0304,-0.11187 -0.0507,-0.16397 -0.0206,-0.0304 -0.0509,-0.0508 -0.0712,-0.0814 -0.0101,-0.0206 -0.002,-0.0611 -0.0207,-0.0814 -0.0304,-0.0509 -0.0814,-0.0915 -0.11113,-0.13434 -0.0206,-0.0304 -0.0304,-0.0611 -0.0406,-0.0917 -0.0207,-0.0406 -0.0508,-0.0915 -0.0814,-0.13434 -0.0206,-0.0206 -0.0406,-0.0307 -0.0611,-0.0511 -0.0206,-0.0206 -0.0304,-0.0507 -0.0304,-0.0712 -6.2e-4,-0.0206 0.006,-0.0406 0.0206,-0.0508 z" />
</svg>